# xmcd CD database file
#
# Track frame offsets:
#	150
#	24688
#	51638
#	76348
#	94113
#	112985
#	132728
#	166242
#	182097
#	197064
#	215472
#	238599
#	252459
#
# Disc length: 3609 seconds
#
# Revision: 0
# Processed by: cddbd v1.5.1PL0 Copyright (c) Steve Scherf et al.
# Submitted via: CDex 1.51
#
DISCID=bb0e170d
DTITLE=Piano Solos Nara Lotus b9-2005 - Piano Solos Nara Lotus b9-2005
DYEAR=1997
DGENRE=New Age
TTITLE0=Gentle Earth Sky - Michael Gettel
TTITLE1=Girl From Barcelona - Kostia
TTITLE2=Ariadne - Ira Stein
TTITLE3=So Close - Wayne Gratz
TTITLE4=Turning - Bob Read
TTITLE5=Flowers in the Water - Kostia
TTITLE6=Aspen Summer - Michael Jones
TTITLE7=August 28, 1962 - Sheldon Mirowitz
TTITLE8=Fiddletown - Ira Stein
TTITLE9=Where We Used To Play - Spencer Brewer
TTITLE10=The Memory - Nancy Rumbel
TTITLE11=Cypress - Wayne Gratz
TTITLE12=The Teacher - Brian Mann
EXTD=YEAR: 1997
EXTT0=
EXTT1=
EXTT2=
EXTT3=
EXTT4=
EXTT5=
EXTT6=
EXTT7=
EXTT8=
EXTT9=
EXTT10=
EXTT11=
EXTT12=
PLAYORDER=
